<svg width="64" height="64" viewBox="0 0 64 64" xmlns="http://www.w3.org/2000/svg">
  <defs>
    <linearGradient id="rainbow" x1="0%" y1="0%" x2="100%" y2="100%">
      <stop offset="0%" stop-color="#ff4ecd">
        <animate attributeName="stop-color" values="#ff4ecd;#4facfe;#00f2fe;#43e97b;#ff4ecd" dur="4s" repeatCount="indefinite" />
      </stop>
      <stop offset="100%" stop-color="#43e97b">
        <animate attributeName="stop-color" values="#43e97b;#ff4ecd;#4facfe;#00f2fe;#43e97b" dur="4s" repeatCount="indefinite" />
      </stop>
    </linearGradient>
  </defs>
  <rect width="64" height="64" rx="12" fill="url(#rainbow)" />
  <path d="M44 24h-4v-2a8 8 0 0 0-16 0v2h-4a4 4 0 0 0-4 4v20a4 4 0 0 0 4 4h24a4 4 0 0 0 4-4V28a4 4 0 0 0-4-4zm-18-2a6 6 0 0 1 12 0v2h-12v-2zm18 26H20V28h24v20z" fill="#fff"/>
</svg>
